<?xml version="1.0" encoding="UTF-8" standalone="no"?> <!-- Created with Vectornator for iOS (http://vectornator.io/) --><!DOCTYPE svg PUBLIC "-//W3C//DTD SVG 1.1//EN" "http://www.w3.org/Graphics/SVG/1.1/DTD/svg11.dtd">
<svg height="100%" style="fill-rule:nonzero;clip-rule:evenodd;stroke-linecap:round;stroke-linejoin:round;" xmlns:xlink="http://www.w3.org/1999/xlink" xmlns="http://www.w3.org/2000/svg" xml:space="preserve" width="100%" xmlns:vectornator="http://vectornator.io" version="1.1" viewBox="0 0 512 512">
<metadata>
<vectornator:setting key="DimensionsVisible" value="1"/>
<vectornator:setting key="PencilOnly" value="0"/>
<vectornator:setting key="SnapToPoints" value="0"/>
<vectornator:setting key="OutlineMode" value="0"/>
<vectornator:setting key="CMYKEnabledKey" value="0"/>
<vectornator:setting key="RulersVisible" value="1"/>
<vectornator:setting key="SnapToEdges" value="0"/>
<vectornator:setting key="GuidesVisible" value="1"/>
<vectornator:setting key="DisplayWhiteBackground" value="0"/>
<vectornator:setting key="doHistoryDisabled" value="0"/>
<vectornator:setting key="SnapToGuides" value="1"/>
<vectornator:setting key="TimeLapseWatermarkDisabled" value="0"/>
<vectornator:setting key="Units" value="Pixels"/>
<vectornator:setting key="DynamicGuides" value="1"/>
<vectornator:setting key="IsolateActiveLayer" value="0"/>
<vectornator:setting key="SnapToGrid" value="0"/>
</metadata>
<defs/>
<g id="Layer 2" vectornator:layerName="Layer 2">
<path d="M181.594+281.125C169.58+280.937+160.291+282.631+153.031+284.781C159.591+286.325+166.966+287.281+174.938+287.281C185.029+287.281+194.299+285.926+201.938+283.5C201.865+283.469+201.791+283.472+201.719+283.438C201.606+283.384+201.458+283.334+201.344+283.281C199.44+282.941+197.679+282.543+195.688+282.25C190.91+281.548+186.206+281.197+181.594+281.125ZM329.938+281.125C325.651+281.203+321.122+281.548+316.344+282.25C314.456+282.527+312.76+282.891+310.969+283.219C318.753+285.82+328.351+287.281+338.812+287.281C346.113+287.281+352.818+286.426+358.969+285.125C351.352+282.808+341.713+280.91+329.938+281.125ZM305.688+285.812L305.594+286.031C305.59+286.041+305.572+286.036+305.562+286.062C305.54+286.124+305.524+286.189+305.5+286.25L305.281+286.875C305.279+286.896+305.284+286.916+305.281+286.938C305.434+287.181+305.628+287.477+306.031+287.844C306.366+288.148+306.928+288.441+307.375+288.75C306.992+287.699+306.355+286.753+305.688+285.812ZM220.25+287.594C219.941+293.433+215.737+298.149+209.219+301.688C209.78+302.279+210.575+302.766+211.25+303.312C213.193+301.893+215.383+300.569+218.031+299.438C219.093+295.249+222.567+292.194+227.625+289.938C225.258+289.139+222.89+288.355+220.25+287.594ZM291.75+287.594C289.101+288.358+286.717+289.136+284.344+289.938C289.402+292.194+292.876+295.249+293.938+299.438C297.014+300.752+299.485+302.324+301.594+304.031C302.379+303.454+303.127+302.848+303.781+302.219C296.671+298.633+292.074+293.73+291.75+287.594ZM251.219+310.438C250.409+311.566+249.339+312.555+247.656+313C245.697+313.518+244.552+313.893+243.844+314.25C243.523+314.412+243.182+314.455+242.844+314.562C242.628+314.84+242.424+315.122+242.156+315.375C241.962+315.558+241.783+315.725+241.594+315.875C241.527+315.927+241.465+315.955+241.406+316C241.584+315.855+241.761+315.696+241.969+315.469C241.446+316.038+240.84+316.514+240.156+316.875C237.957+318.036+236.138+319.731+234.625+321.719C240.762+323.285+248.418+324.221+256.5+324.25C264.271+324.278+271.6+323.444+277.688+322.031C275.989+319.559+273.919+317.354+271.625+315.719C271.29+315.48+271.055+315.182+270.781+314.906C269.855+314.856+268.967+314.675+268.125+314.25C267.521+313.945+266.58+313.625+264.531+313.062C263.069+312.661+261.838+311.735+260.938+310.531C259.456+310.591+258.088+310.755+256.562+310.75C254.707+310.743+253.006+310.54+251.219+310.438ZM356+349.625C349.392+349.572+342.554+349.897+335.656+350.75C299.168+355.26+265.4+371.314+259.312+374.312L259.312+395.5C267.17+391.688+299.607+376.691+334.781+372.344C374.904+367.385+415.031+380.594+415.031+380.594L404.469+356C393.561+353.323+375.825+349.785+356+349.625ZM163.156+349.688C139.914+349.154+118.999+353.468+107.406+356.406L97+380.594C97+380.594+137.127+367.385+177.25+372.344C214.975+377.006+250.217+394.208+254.438+396.312L254.438+374.312C248.235+371.263+214.536+355.25+178.125+350.75C173.11+350.13+168.093+349.801+163.156+349.688Z" opacity="1" fill="#000000"/>
<path d="M181.562+253.156C172.515+253.014+164.985+253.97+158.625+255.344C157.32+258.95+155.543+263.905+154.469+266.875C160.494+265.635+167.123+264.906+174.062+264.906C180.996+264.906+187.609+265.608+193.625+266.844L188.875+253.75C186.435+253.552+183.956+253.194+181.562+253.156ZM329.906+253.156C327.768+253.195+325.387+253.534+323.125+253.719C321.612+257.908+319.601+263.454+318.375+266.844C324.391+265.608+331.004+264.906+337.938+264.906C344.877+264.906+351.506+265.635+357.531+266.875L353.469+255.656C346.813+254.101+338.968+252.991+329.906+253.156ZM210.312+257.062L219.969+283.812C220.083+284.13+219.997+284.432+220.062+284.75C220.072+284.783+220.084+284.81+220.094+284.844C220.271+285.478+220.375+286.157+220.375+286.906C220.375+300.807+199.393+308.875+174.062+308.875C148.724+308.875+127.719+300.807+127.719+286.906C127.719+286.19+127.837+285.546+128+284.938C128.065+284.561+127.96+284.189+128.094+283.812L128.906+281.531C128.964+281.369+129.055+281.22+129.125+281.062L134.875+265.188C134.837+265.219+134.469+265.469+134.469+265.469L96.9688+352.625C96.9687+352.625+137.096+339.416+177.219+344.375C214.982+349.042+250.279+366.269+254.438+368.344L254.438+345.781C246.233+345.668+238.355+344.76+232.344+343.062C228.639+342.016+225.578+340.704+223.219+338.969C220.012+336.611+218.071+333.362+218.062+329.531C209.84+326.003+204.656+321.202+204.656+314.469C204.656+307.729+209.817+302.948+218.031+299.438C219.223+294.735+223.341+291.397+229.469+289.094C233.401+287.616+238.43+286.651+243.812+285.969L243.812+268.469C236.042+264.809+225.187+260.463+210.312+257.062ZM301.719+257.062C286.754+260.479+275.838+264.827+268.062+268.5L268.125+285.969C273.519+286.652+278.561+287.613+282.5+289.094C288.628+291.397+292.746+294.736+293.938+299.438C302.154+302.948+307.312+307.73+307.312+314.469C307.312+321.192+302.137+326.005+293.938+329.531C293.827+333.489+291.727+336.742+288.375+339.125C285.949+340.85+282.843+342.189+279.094+343.219C273.63+344.72+266.617+345.452+259.312+345.656L259.312+367.531C267.219+363.697+299.614+348.718+334.75+344.375C374.873+339.416+415+352.625+415+352.625L377.5+265.469C377.5+265.469+377.203+265.293+377.188+265.281L383.031+281.469L383.875+283.781C383.997+284.116+383.902+284.445+383.969+284.781C383.975+284.804+383.993+284.82+384+284.844C384.177+285.478+384.281+286.157+384.281+286.906C384.281+300.807+363.276+308.875+337.938+308.875C312.607+308.875+291.625+300.807+291.625+286.906C291.625+286.157+291.729+285.478+291.906+284.844C291.913+284.82+291.931+284.804+291.938+284.781C292.004+284.445+291.91+284.116+292.031+283.781L292.781+281.688C292.78+281.691+292.811+281.63+292.812+281.625C292.829+281.58+292.858+281.545+292.875+281.5L292.906+281.375C292.917+281.348+292.928+281.336+292.938+281.312L301.719+257.062ZM174.062+278.406C163.051+278.406+152.974+280.344+146.406+283.438C145.055+284.074+143.679+284.218+142.406+284L141.656+286.094L141.375+286.938C141.528+287.182+141.721+287.477+142.125+287.844C143.427+289.026+145.613+290.266+148.5+291.375C155.052+293.892+164.207+295.375+174.062+295.375C183.917+295.375+193.082+293.892+199.625+291.375C202.507+290.267+204.67+289.025+205.969+287.844C206.372+287.477+206.566+287.181+206.719+286.938C206.715+286.905+206.722+286.876+206.719+286.844L205.688+284C204.423+284.211+203.061+284.07+201.719+283.438C195.155+280.343+185.084+278.406+174.062+278.406ZM337.938+278.406C326.916+278.406+316.845+280.343+310.281+283.438C308.94+284.07+307.577+284.21+306.312+284L305.594+286.031C305.59+286.041+305.572+286.036+305.562+286.062C305.54+286.124+305.524+286.189+305.5+286.25L305.281+286.875C305.279+286.896+305.284+286.916+305.281+286.938C305.434+287.181+305.628+287.477+306.031+287.844C307.33+289.025+309.493+290.267+312.375+291.375C318.918+293.892+328.083+295.375+337.938+295.375C347.793+295.375+356.948+293.892+363.5+291.375C366.386+290.266+368.573+289.026+369.875+287.844C370.279+287.477+370.472+287.181+370.625+286.938C370.622+286.916+370.627+286.896+370.625+286.875L370.406+286.25L369.594+284C368.321+284.218+366.945+284.074+365.594+283.438C359.026+280.344+348.949+278.406+337.938+278.406ZM256.031+302.625L255.406+303.594C255.008+304.213+254.403+304.613+253.844+305.062C253.693+305.872+253.455+306.666+252.969+307.438L252.375+308.375C251.807+310.451+250.316+312.297+247.656+313C245.697+313.518+244.552+313.893+243.844+314.25C243.523+314.412+243.182+314.455+242.844+314.562C242.628+314.84+242.424+315.122+242.156+315.375C241.962+315.558+241.783+315.725+241.594+315.875C241.527+315.927+241.465+315.955+241.406+316C241.584+315.855+241.761+315.696+241.969+315.469C241.446+316.038+240.84+316.514+240.156+316.875C237.263+318.402+234.772+320.62+233.188+323.594C232.908+324.118+232.479+324.49+232.094+324.906C232.125+325.549+232.162+326.189+232+326.844C231.84+327.49+231.83+327.828+231.75+328.281C232.67+328.859+233.975+329.491+236+330.062C240.844+331.43+247.752+332.237+255+332.312C255.444+330.126+256.059+328.469+256.875+328.469C257.677+328.469+258.273+330.064+258.719+332.188C265.086+332.018+271.121+331.39+275.5+330.188C277.75+329.569+279.366+328.872+280.344+328.219C280.296+327.746+280.281+327.286+280.156+326.781C280.011+326.191+280.05+325.613+280.062+325.031C279.633+324.598+279.184+324.185+278.875+323.625C277.099+320.409+274.427+317.717+271.625+315.719C271.29+315.48+271.055+315.182+270.781+314.906C269.855+314.856+268.967+314.675+268.125+314.25C267.521+313.945+266.58+313.625+264.531+313.062C262.852+312.601+261.394+311.526+260.5+310.031C260.297+309.691+259.078+307.652+258.875+307.312C258.419+306.55+258.198+305.763+258.062+304.969C257.514+304.505+256.915+304.068+256.531+303.438L256.031+302.625Z" opacity="1" fill="#000000"/>
</g>
<g id="Layer 1" vectornator:layerName="Layer 1">
<path stroke="#ff0000" stroke-width="6.7285" d="M780.511+122.348C777.327+121.575+782.151+117.394+783.672+120.958C784.595+121.287+785.667+121.273+786.448+121.931C754.364+122.562+722.203+118.333+689.993+119.369C688.082+118.935+686.287+118.023+684.744+116.822C676.725+115.196+683.263+107.411+686.057+115.033C687.479+116.138+689.15+117.042+690.954+117.287C722.868+116.311+754.675+119.502+786.448+120.54C784.68+121.631+782.452+121.658+780.511+122.348" fill="#ff0000" stroke-linecap="square" opacity="1" stroke-linejoin="miter"/>
<path d="M239.507+151.841C246.236+160.653+258.834+162.34+267.646+155.611C275.176+149.86+277.45+139.822+273.769+131.526L288.707+120.117C290.755+118.553+291.149+115.614+289.585+113.565C288.02+111.517+285.096+111.143+283.047+112.707L268.109+124.115C261.074+118.38+250.792+117.931+243.262+123.682C234.45+130.412+232.777+143.029+239.507+151.841ZM245.643+147.095C241.356+141.482+242.429+133.47+248.042+129.183C253.655+124.896+261.685+125.957+265.971+131.57C270.258+137.183+269.18+145.225+263.567+149.512C257.954+153.798+249.929+152.708+245.643+147.095Z" opacity="1" fill="#000000"/>
<path d="M343.719+178.75C343.748+178.761+343.783+178.77+343.812+178.781C343.963+178.837+344.062+178.98+344.062+179.219C344.062+179.517+343.911+179.649+343.812+179.688C343.802+179.687+343.792+179.688+343.781+179.688C343.696+179.684+343.617+179.719+343.531+179.719C343.533+179.539+343.607+179.367+343.594+179.188C343.591+179.143+343.566+179.107+343.562+179.062C343.58+179.022+343.582+179.06+343.625+178.969C343.658+178.898+343.688+178.822+343.719+178.75Z" opacity="1" fill="#000000"/>
<path d="M168.219+178.812C168.245+178.862+168.253+178.92+168.281+178.969C168.34+179.071+168.343+179.12+168.375+179.188C168.363+179.38+168.464+179.558+168.469+179.75C168.373+179.743+168.284+179.691+168.188+179.688C168.059+179.683+167.906+179.514+167.906+179.219C167.906+179.018+168.033+178.882+168.219+178.812Z" opacity="1" fill="#000000"/>
<path d="M256.875+183.469L255.938+186.75L255.125+183.562C255.724+183.665+256.284+183.53+256.875+183.469Z" opacity="1" fill="#000000"/>
<path d="M174.062+278.406C185.084+278.406+195.155+280.343+201.719+283.438C203.061+284.07+204.423+284.211+205.688+284L206.719+286.844C206.722+286.876+206.715+286.905+206.719+286.938C206.566+287.181+206.372+287.477+205.969+287.844C204.67+289.025+202.507+290.267+199.625+291.375C193.082+293.892+183.917+295.375+174.062+295.375C164.207+295.375+155.052+293.892+148.5+291.375C145.613+290.266+143.427+289.026+142.125+287.844C141.721+287.477+141.528+287.182+141.375+286.938L141.656+286.094L142.406+284C143.679+284.218+145.055+284.074+146.406+283.438C152.974+280.344+163.051+278.406+174.062+278.406Z" opacity="1" fill="#000000"/>
<path d="M337.938+278.406C348.949+278.406+359.026+280.344+365.594+283.438C366.945+284.074+368.321+284.218+369.594+284L370.406+286.25L370.625+286.875C370.627+286.896+370.622+286.916+370.625+286.938C370.472+287.181+370.279+287.477+369.875+287.844C368.573+289.026+366.386+290.266+363.5+291.375C356.948+293.892+347.793+295.375+337.938+295.375C328.083+295.375+318.918+293.892+312.375+291.375C309.493+290.267+307.33+289.025+306.031+287.844C305.628+287.477+305.434+287.181+305.281+286.938C305.284+286.916+305.279+286.896+305.281+286.875L305.5+286.25C305.524+286.189+305.54+286.124+305.562+286.062C305.572+286.036+305.59+286.041+305.594+286.031L306.312+284C307.577+284.21+308.94+284.07+310.281+283.438C316.845+280.343+326.916+278.406+337.938+278.406Z" opacity="1" fill="#000000"/>
<path d="M256.031+302.625L256.531+303.438C256.915+304.068+257.514+304.505+258.062+304.969C258.198+305.763+258.419+306.55+258.875+307.312C259.078+307.652+260.297+309.691+260.5+310.031C261.394+311.526+262.852+312.601+264.531+313.062C266.58+313.625+267.521+313.945+268.125+314.25C268.967+314.675+269.855+314.856+270.781+314.906C271.055+315.182+271.29+315.48+271.625+315.719C274.427+317.717+277.099+320.409+278.875+323.625C279.184+324.185+279.633+324.598+280.062+325.031C280.05+325.613+280.011+326.191+280.156+326.781C280.281+327.286+280.296+327.746+280.344+328.219C279.366+328.872+277.75+329.569+275.5+330.188C270.408+331.586+263.229+332.371+255.688+332.344C248.177+332.317+241.003+331.475+236+330.062C233.975+329.491+232.67+328.859+231.75+328.281C231.83+327.828+231.84+327.49+232+326.844C232.162+326.189+232.125+325.549+232.094+324.906C232.479+324.49+232.908+324.118+233.188+323.594C234.772+320.62+237.263+318.402+240.156+316.875C240.84+316.514+241.446+316.038+241.969+315.469C241.761+315.696+241.584+315.855+241.406+316C241.466+315.955+241.527+315.927+241.594+315.875C241.783+315.725+241.962+315.558+242.156+315.375C242.424+315.122+242.628+314.84+242.844+314.562C243.182+314.455+243.523+314.412+243.844+314.25C244.552+313.892+245.697+313.518+247.656+313C250.316+312.297+251.807+310.451+252.375+308.375L252.969+307.438C253.455+306.666+253.693+305.872+253.844+305.062C254.403+304.613+255.008+304.213+255.406+303.594L256.031+302.625Z" opacity="1" fill="#000000"/>
<path d="M215.375+160.157C201.43+160.135+191.685+167.506+185.844+174.001L185.75+173.969C185.75+173.969+181.164+178.734+176.688+181.501L176+179.594C176.008+179.461+176.094+179.355+176.094+179.219C176.094+177.874+175.647+176.706+175.031+175.626C174.78+175.021+174.497+174.371+174.031+173.782C173.231+172.769+171.224+172.021+169.219+172.001C169.144+172+169.075+171.968+169+171.969C168.196+171.985+167.432+172.162+166.719+172.469C164.011+173.479+162.031+176.072+162.031+179.219C162.031+183.151+165.071+186.309+168.844+186.438C169.568+186.757+170.374+186.923+171.219+186.969L136.188+283.782C136.181+283.794+136.163+283.801+136.156+283.813L135.344+286.094L135.563+286.094C135.525+286.367+135.344+286.63+135.344+286.907C135.344+295.315+153.081+302.126+174.938+302.126C196.794+302.126+214.5+295.315+214.5+286.907C214.5+286.63+214.319+286.367+214.281+286.094L214.5+286.094L178.063+185.313C181.93+183.591+186.091+180.748+189.969+177.626C200.621+169.047+206.207+166.514+216.094+166.313C228.54+166.059+241.418+176.965+249.406+184.969L251.438+193.251L251.438+291.969C236.59+292.846+225.125+296.922+225.125+302.094C225.125+302.736+225.356+303.359+225.688+303.969C217.422+306.645+212.281+310.332+212.281+314.469C212.281+318.704+217.703+322.52+226.313+325.219C225.994+326.504+225.711+327.801+225.625+329.282C224.875+342.128+287.949+342.576+288.094+329.282C288.109+327.848+287.919+326.474+287.594+325.157C296.095+322.461+301.438+318.67+301.438+314.469C301.437+310.336+296.292+306.644+288.031+303.969C288.364+303.359+288.594+302.736+288.594+302.094C288.594+296.924+277.126+292.848+262.281+291.969L262+193.126L264.281+185.251C272.142+177.28+285.242+165.994+297.844+166.251C307.656+166.45+313.209+168.956+323.781+177.469C327.672+180.603+331.869+183.405+335.75+185.126L300.094+283.782C300.066+283.834+300.058+283.886+300.031+283.938L299.25+286.094L299.469+286.094C299.431+286.367+299.25+286.63+299.25+286.907C299.25+295.315+316.956+302.126+338.812+302.126C360.669+302.126+378.406+295.315+378.406+286.907C378.406+286.63+378.225+286.367+378.188+286.094L378.406+286.094L377.625+283.938L377.562+283.782L342.469+186.782C343.155+186.744+343.799+186.657+344.406+186.438C344.495+186.441+344.566+186.5+344.656+186.501C348.538+186.501+351.688+183.233+351.688+179.219C351.687+176.071+349.74+173.448+347.031+172.438C344.486+171.237+340.79+172.214+339.625+173.688C338.988+174.494+338.598+175.348+338.375+176.126C337.933+177.077+337.625+178.093+337.625+179.219C337.625+179.375+337.708+179.503+337.719+179.657L337.094+181.438C332.606+178.712+327.969+173.876+327.969+173.876L327.875+173.907C322.077+167.461+312.434+160.135+298.594+160.157C278.493+160.188+257.125+176.813+257.125+176.813L257.125+176.938C257.125+176.938+235.628+160.189+215.375+160.157ZM174.938+192.876L200.656+264.063L205.469+277.313C198.212+273.892+187.311+271.657+174.938+271.657C162.571+271.657+151.663+273.895+144.406+277.313L174.938+192.876ZM338.812+192.876L369.344+277.313C362.087+273.895+351.179+271.657+338.812+271.657C326.439+271.657+315.538+273.892+308.281+277.313L338.812+192.876ZM251.438+294.469L251.438+298.626L250.594+299.938C244.07+300.242+237.982+300.962+232.688+302.094C232.688+298.309+240.782+295.298+251.438+294.469ZM262.313+294.501C272.943+295.337+281.031+298.316+281.031+302.094C281.031+302.104+281.031+302.116+281.031+302.126C275.753+300.996+269.685+300.247+263.188+299.938L262.313+298.501L262.313+294.501ZM248.125+303.844L246.469+306.469L246.813+306.469C244.947+306.962+243.128+307.492+241.688+308.219C239.326+307.571+237.418+306.774+235.938+305.876C239.508+304.93+243.581+304.252+248.125+303.844ZM265.563+303.844C270.122+304.253+274.198+304.927+277.781+305.876C276.298+306.773+274.394+307.572+272.031+308.219C270.668+307.531+268.935+307.043+267.188+306.563L265.563+303.844ZM230.031+307.688C232.163+308.814+235.187+309.683+238.406+310.469C238.246+310.621+238.018+310.751+237.875+310.907C235.105+312.369+230.828+315.275+228.094+320.407C224.872+318.684+222.906+316.643+222.906+314.469C222.906+311.893+225.638+309.578+230.031+307.688ZM283.688+307.688C288.085+309.577+290.813+311.895+290.813+314.469C290.813+316.634+288.86+318.657+285.656+320.376C282.815+315.229+278.593+311.778+276.406+310.219C279.183+309.481+281.788+308.69+283.688+307.688Z" opacity="1" fill="#000000"/>
</g>
</svg>
